<svg enable-background="new 0 0 423.4 203.7" viewBox="0 0 423.4 203.7" xmlns="http://www.w3.org/2000/svg" xmlns:xlink="http://www.w3.org/1999/xlink"><linearGradient id="a" gradientUnits="userSpaceOnUse" x1="195.7432" x2="212.5302" y1="176.367" y2="113.717"><stop offset="0" stop-color="#fff"/><stop offset=".4863" stop-color="#fff" stop-opacity="0"/><stop offset="1" stop-color="#fff"/></linearGradient><path d="m204.2 116c16 0 28.9 12.9 28.9 28.9 0 16-12.9 28.9-28.9 28.9-16 0-28.9-12.9-28.9-28.9 0-16 12.9-28.9 28.9-28.9zm0-3.7c-18 0-32.6 14.6-32.6 32.6s14.6 32.6 32.6 32.6 32.6-14.6 32.6-32.6-14.6-32.6-32.6-32.6z" fill="url(#a)"/><g fill="#fffdff"><path d="m222.4 154.1v-19.7l-17.2-11.3-17.3 11.3 17.3 11.3 14.6-9.6v18.6l-15.7 10.8-15.1-10.3c-.3-.2-.7-.1-.9.2s-.1.7.2.9l15.4 10.4c.1 0 .2.1.2.1h.2s.1 0 .1-.1l17.6-12.1c.4-.1.5-.3.6-.5z"/><path d="m52.8 31.2c0-2.4 1.2-3.6 3.6-3.6h3.5c2.4 0 3.6 1.2 3.6 3.6v69.7c0 2.4-1.2 3.6-3.6 3.6h-3.5c-2.4 0-3.6-1.2-3.6-3.6z"/><path d="m82.8 31.2c0-2.4 1.2-3.6 3.6-3.6h4.1c2.1 0 3.3.7 4.4 2.4l32.8 47.6c2.7 4.1 6.3 11.1 6.3 11.1h.2s-.7-6.9-.7-11.1v-46.4c0-2.4 1.3-3.6 3.6-3.6h3.5c2.4 0 3.6 1.2 3.6 3.6v69.7c0 2.4-1.2 3.6-3.6 3.6h-4.1c-2 0-3.3-.7-4.2-2.4l-32.9-47.5c-2.7-4.2-6.3-11.2-6.3-11.2h-.2s.7 6.9.7 11.2v46.3c0 2.4-1.2 3.6-3.6 3.6h-3.5c-2.4 0-3.6-1.2-3.6-3.6v-69.7z"/><path d="m155.6 92.8 1.9-2.6c1.3-1.7 2.8-2 4.9-.7 2.7 2 8.6 6.2 16.8 6.2s13.5-4.4 13.5-11c0-17-37-13.2-37-37.2 0-13 10.9-21.4 25-21.4 9.2 0 16.3 3.6 19.3 5.9 1.9 1.3 2.1 2.9 1.1 4.9l-1.5 2.7c-1.3 2.3-3.1 2.1-4.9 1-2.9-1.7-7.6-4.5-14.2-4.5-8 0-13.8 4.1-13.8 10.8 0 16.6 37 12.1 37 36.8 0 12.1-9 21.9-24.4 21.9-11.1 0-19.6-5.1-23.1-8-1.6-1.1-2.2-2.6-.6-4.8z"/><path d="m218.6 31.2c0-2.4 1.2-3.6 3.6-3.6h3.5c2.4 0 3.6 1.2 3.6 3.6v69.7c0 2.4-1.2 3.6-3.6 3.6h-3.5c-2.4 0-3.6-1.2-3.6-3.6z"/><path d="m250 31.2c0-2.4 1.2-3.6 3.6-3.6h21.9c23.4 0 39 14.1 39 38.4 0 24.4-15.6 38.6-39 38.6h-21.9c-2.4 0-3.6-1.2-3.6-3.6zm24.7 63.9c17.3 0 28.7-10.2 28.7-29.2 0-18.9-11.4-29-28.7-29h-14.1v58.2z"/><path d="m325.8 31.2c0-2.4 1.2-3.6 3.6-3.6h37.5c2.4 0 3.6 1.2 3.6 3.6v2.2c0 2.3-1.2 3.6-3.6 3.6h-30.4v24h24.1c2.3 0 3.6 1.2 3.6 3.6v2.2c0 2.4-1.3 3.6-3.6 3.6h-24.1v24.7h32.3c2.4 0 3.6 1.2 3.6 3.6v2.2c0 2.4-1.2 3.6-3.6 3.6h-39.3c-2.4 0-3.6-1.2-3.6-3.6v-69.7z"/><path d="m57.3 134.7h-5.4c-.6 0-.9-.3-.9-.9v-.5c0-.6.3-.9.9-.9h13.4c.5 0 .8.3.8.9v.5c0 .5-.3.9-.8.9h-5.4v15.1c0 .6-.3.9-.9.9h-.9c-.5 0-.8-.3-.8-.9z"/><path d="m92.7 133.4c0-.6.3-.9.9-.9h.8c.6 0 .9.3.9.9v7.2h9.5v-7.2c0-.6.3-.9.9-.9h.9c.5 0 .8.3.8.9v16.5c0 .6-.3.9-.8.9h-.9c-.5 0-.9-.3-.9-.9v-7.1h-9.5v7.1c0 .6-.3.9-.9.9h-.8c-.6 0-.9-.3-.9-.9z"/><path d="m138.2 133.4c0-.6.3-.9.9-.9h8.9c.6 0 .9.3.9.9v.5c0 .5-.3.9-.9.9h-7.2v5.7h5.7c.5 0 .9.3.9.9v.5c0 .6-.3.9-.9.9h-5.7v5.9h7.6c.6 0 .9.3.9.9v.5c0 .6-.3.9-.9.9h-9.3c-.6 0-.9-.3-.9-.9z"/><path d="m256.5 133.4c0-.6.3-.9.9-.9h5.5c3.1 0 5.3 1.7 5.3 4.6 0 1.8-.9 3.2-2.2 3.9v.1c1.9.6 3 2.4 3 4.4 0 3.4-2.7 5.2-5.9 5.2h-5.6c-.6 0-.9-.3-.9-.9v-16.4zm6.4 6.8c1.6 0 2.7-1.2 2.7-2.8s-1-2.7-2.7-2.7h-3.8v5.4h3.8zm.3 8.3c2 0 3.1-1.2 3.1-3.1s-1.2-3.1-3.1-3.1h-4.1v6.2z"/><path d="m304 132.2c5.4 0 9.3 4 9.3 9.3 0 5.4-3.9 9.5-9.3 9.5s-9.4-4.2-9.4-9.5c.1-5.3 4-9.3 9.4-9.3zm0 16.5c3.9 0 6.7-3.1 6.7-7.2 0-3.9-2.8-6.9-6.7-6.9s-6.7 3-6.7 6.9c0 4 2.9 7.2 6.7 7.2z"/><path d="m346.5 141.3-4.7-7.8c-.4-.6-.1-1 .6-1h1.1c.5 0 .7.2 1 .6l2.5 4.4c.6 1 1.2 2.2 1.2 2.2h.1s.5-1.2 1.1-2.2l2.6-4.4c.2-.4.5-.6 1-.6h1.1c.7 0 .9.4.6 1l-4.8 7.8 5.1 8.4c.4.6.1 1-.6 1h-1c-.5 0-.8-.2-1-.6l-3-5c-.6-1-1.2-2.1-1.2-2.1h-.2s-.5 1.1-1.1 2.1l-2.9 5c-.2.4-.5.6-1 .6h-1c-.7 0-1-.4-.6-1z"/></g></svg>